<?xml version="1.0" standalone="no"?>
<!DOCTYPE svg PUBLIC "-//W3C//DTD SVG 20010904//EN"
 "http://www.w3.org/TR/2001/REC-SVG-20010904/DTD/svg10.dtd">
<svg version="1.0" xmlns="http://www.w3.org/2000/svg"
 width="735.000000pt" height="735.000000pt" viewBox="0 0 735.000000 735.000000"
 preserveAspectRatio="xMidYMid meet">

<g transform="translate(0.000000,735.000000) scale(0.100000,-0.100000)"
fill="#9e154a" stroke="none">
<path d="M4532 7248 c-18 -6 -171 -122 -340 -257 -169 -136 -559 -449 -867
-696 -308 -247 -661 -530 -785 -630 -124 -100 -349 -280 -500 -402 -151 -121
-288 -233 -303 -249 -49 -49 -62 -82 -62 -164 0 -64 4 -82 27 -121 27 -46 79
-89 131 -108 44 -17 127 -13 173 8 23 11 167 120 320 243 154 123 486 390 739
593 253 203 561 450 685 550 124 99 398 320 610 489 212 170 400 322 419 340
47 43 74 109 73 176 -1 93 -39 160 -118 206 -51 30 -147 41 -202 22z"/>
<path d="M3180 7128 c-43 -11 -67 -29 -477 -359 -175 -141 -412 -333 -528
-426 -472 -380 -444 -355 -471 -418 -20 -49 -21 -138 -2 -185 40 -95 117 -144
223 -144 89 0 102 7 290 158 454 365 685 551 814 655 79 64 203 163 275 221
109 87 136 114 159 159 95 189 -76 395 -283 339z"/>
<path d="M5444 7007 c-12 -7 -92 -68 -179 -137 -146 -115 -227 -179 -530 -418
-60 -47 -171 -134 -245 -193 -206 -163 -341 -269 -496 -390 -108 -84 -146
-119 -159 -149 -31 -69 -5 -143 64 -184 30 -18 41 -18 190 -6 182 15 378 8
466 -15 223 -61 368 -204 426 -422 26 -95 31 -335 10 -453 -71 -408 -307 -663
-706 -764 -113 -29 -46 -21 -1643 -181 -607 -61 -862 -90 -883 -101 -17 -8
-39 -29 -49 -47 -19 -31 -20 -58 -20 -1024 l0 -992 -217 -173 c-120 -96 -349
-278 -510 -406 -260 -208 -294 -238 -317 -284 -81 -162 37 -349 218 -348 22 0
60 9 83 20 36 16 316 234 1008 785 77 62 273 217 436 346 163 129 434 344 604
479 170 135 326 258 347 273 45 34 38 33 568 87 217 22 441 47 496 55 588 88
1076 275 1449 556 617 464 924 1140 925 2035 0 466 -64 825 -205 1154 -77 179
-188 343 -329 485 -145 146 -280 241 -459 325 -190 89 -294 116 -343 87z"/>
<path d="M1830 6994 c-157 -68 -192 -272 -68 -391 110 -106 298 -70 369 70 26
50 28 137 4 192 -47 114 -195 176 -305 129z"/>
<path d="M2850 4948 c-25 -13 -112 -77 -194 -143 -81 -66 -185 -149 -230 -185
-207 -162 -464 -369 -509 -410 -65 -59 -89 -108 -89 -180 0 -106 74 -198 179
-221 103 -23 107 -20 603 377 245 195 462 371 483 389 112 101 100 280 -23
361 -59 39 -158 44 -220 12z"/>
<path d="M2766 1409 c-33 -18 -136 -96 -436 -334 -36 -28 -116 -91 -179 -140
-139 -109 -169 -138 -192 -190 -23 -49 -25 -139 -4 -188 47 -113 175 -172 295
-136 22 7 112 70 212 148 96 75 255 199 354 276 239 186 259 206 280 267 36
110 1 215 -95 283 -37 26 -52 30 -119 33 -63 2 -84 -2 -116 -19z"/>
<path d="M2802 571 c-99 -34 -155 -116 -154 -222 2 -172 177 -280 330 -203
120 60 166 192 107 311 -31 62 -81 102 -149 120 -64 16 -70 16 -134 -6z"/>
</g>
</svg>
